<svg id="Layer_1" data-name="Layer 1" xmlns="http://www.w3.org/2000/svg" viewBox="0 0 237.93 244.47"><defs><style>.cls-1{fill:#fff;stroke:#000;stroke-miterlimit:10;stroke-width:2px;}</style></defs><title>oracle</title><path class="cls-1" d="M901.79,434.2c-65.15,0-118,54.28-118,121.24a122.66,122.66,0,0,0,31,81.86,83.56,83.56,0,0,1-16.09-49.53c0-45.53,35.91-82.43,80.21-82.43s80.21,36.91,80.21,82.43S923.2,670.2,878.9,670.2a78.1,78.1,0,0,1-26.37-4.58,114.86,114.86,0,0,0,49.26,11.05c65.15,0,118-54.28,118-121.24S966.94,434.2,901.79,434.2Z" transform="translate(-782.83 -433.2)"/><circle class="cls-1" cx="69.59" cy="103.91" r="9.41"/></svg>